<svg version="1" xmlns="http://www.w3.org/2000/svg" width="1301.333" height="1301.333" viewBox="0 0 976.000000 976.000000"><path d="M429.5 210c-112.6.3-173.6.8-174.7 1.5C250.9 213.8 4.2 447.2 3.7 449c-.3 1.1.3 3 1.4 4.4 2.3 3-7.4-5.8 223.2 201.4L273 695h252.1l5.7-5.3c39.1-36.7 184-174.6 185.1-176 1-1.4 1.1-2.7.5-4.3-1-2.7-120.8-115.1-123.9-116.4-3.1-1.2-93.7-1.7-95.6-.5-.9.6-28.6 26.4-61.7 57.4-52.1 48.7-60.2 56.7-60.2 59.1 0 2.1.6 3.1 2.3 3.7 1.2.4 33.8.8 72.5.8 76.8 0 74.2-.2 70.4 5.5-.9 1.4-10.7 11.1-21.7 21.5s-23.4 22.2-27.6 26.2l-7.7 7.3H335.3l-60.9-58.5c-33.5-32.1-61.8-59.6-62.8-61-2-2.5-2-2.5 0-5 1-1.4 29.3-28.2 62.9-59.6l60.9-56.9h191.3c2.7 0 121.3-113.6 122.7-117.5.8-2 .6-2.9-.7-4.3-2.1-2.1 13.8-2-219.2-1.2z"/><path d="M709.9 256.7c-83 78.3-84.9 80.2-84.9 83.2 0 2.9 10.9 14 84 85.1 76.8 74.8 83.1 81.1 82.8 84.2-.2 2.1-28.3 29.4-132.3 128.7-72.6 69.3-132.1 126.5-132.3 127.1-.3.7 27 1 86.2 1H700l112.2-107.2C973.3 505 969 509.2 969 506.2c0-2-2.8-5.2-12.2-14.3-50.8-48.6-154.3-148.7-155.2-150.1-.7-1.2-.6-2.3.3-4 .7-1.3 30.7-30 66.7-63.8 35.9-33.8 65.3-61.8 65.4-62.3 0-.4-39.6-.7-87.9-.7h-87.9l-48.3 45.7z"/></svg>