<svg xmlns="http://www.w3.org/2000/svg" width="244" height="141"><path d="M189.74 1.2724h43.8608l-33.0022 31.1743c-.6058.5722-.6102 1.5014-.0102 2.079l41.087 39.5297c.5978.5752.596 1.5002-.004 2.0732l-66.6657 63.6648h-43.252l66.0666-63.0922c.5973-.5705.6022-1.4896.0115-2.066l-41.117-40.1078c-.5933-.5785-.5853-1.5023.0178-2.072L189.7427 1.274z" fill="#0b0000"/><path d="M178.6765 75.2778l-30.104-28.1584c-.2205-.2063-.655-.3785-.9652-.3823l-22.52-.267c-.3213-.0038-.7713.1684-1.0003.3823l-29.5384 27.64c-1.343 1.2568-.8987 2.2795.9878 2.2732l33.2628-.1167c1.868-.0067 2.3157 1.0135.9945 2.2665l-13.6087 12.9c-.2255.214-.6706.39-.9897.39h-30.788c-.3218 0-.7696-.1777-.9954-.395l-30.559-29.394c-.5405-.52-.5343-1.365.0137-1.8778L83.4114 31.97c.226-.2113.6697-.383.987-.3823l47.06.137c.3236.0008.7736-.177 1.0008-.3954L161.64 3.26c1.2977-1.2483.8472-2.265-1.0002-2.26l-96.213.2695c-.316.0008-.758.1743-.982.3857L1.4155 60.095c-.563.5305-.5525 1.388.0236 1.9056l66.4482 59.745c.2228.2004.656.3642.9626.3642h61.8816c.3186 0 .7642-.175.9896-.4l46.966-44.5582c.5477-.5196.5446-1.3675-.0075-1.8842z"/></svg>